<?xml version="1.0" encoding="utf-8" standalone="no"?>
<!DOCTYPE svg PUBLIC "-//W3C//DTD SVG 1.1//EN"
  "http://www.w3.org/Graphics/SVG/1.1/DTD/svg11.dtd">
<svg xmlns:xlink="http://www.w3.org/1999/xlink" width="432pt" height="288pt" viewBox="0 0 432 288" xmlns="http://www.w3.org/2000/svg" version="1.1">
 <metadata>
  <rdf:RDF xmlns:dc="http://purl.org/dc/elements/1.1/" xmlns:cc="http://creativecommons.org/ns#" xmlns:rdf="http://www.w3.org/1999/02/22-rdf-syntax-ns#">
   <cc:Work>
    <dc:type rdf:resource="http://purl.org/dc/dcmitype/StillImage"/>
    <dc:date>2026-03-12T11:58:57.815298</dc:date>
    <dc:format>image/svg+xml</dc:format>
    <dc:creator>
     <cc:Agent>
      <dc:title>Matplotlib v3.9.0, https://matplotlib.org/</dc:title>
     </cc:Agent>
    </dc:creator>
   </cc:Work>
  </rdf:RDF>
 </metadata>
 <defs>
  <style type="text/css">*{stroke-linejoin: round; stroke-linecap: butt}</style>
 </defs>
 <g id="figure_1">
  <g id="patch_1">
   <path d="M 0 288 
L 432 288 
L 432 0 
L 0 0 
z
" style="fill: #ffffff"/>
  </g>
  <g id="axes_1">
   <g id="patch_2">
    <path d="M 53.75 243.16 
L 421.2 243.16 
L 421.2 10.8 
L 53.75 10.8 
z
" style="fill: #ffffff"/>
   </g>
   <g id="patch_3">
    <path d="M 70.452273 243.16 
L 73.759653 243.16 
L 73.759653 182.173123 
L 70.452273 182.173123 
z
" clip-path="url(#p8d9c4747aa)" style="fill: #179c4c; opacity: 0.8; stroke: #000000; stroke-width: 0.5; stroke-linejoin: miter"/>
   </g>
   <g id="patch_4">
    <path d="M 73.759653 243.16 
L 77.067034 243.16 
L 77.067034 140.353551 
L 73.759653 140.353551 
z
" clip-path="url(#p8d9c4747aa)" style="fill: #179c4c; opacity: 0.8; stroke: #000000; stroke-width: 0.5; stroke-linejoin: miter"/>
   </g>
   <g id="patch_5">
    <path d="M 77.067034 243.16 
L 80.374415 243.16 
L 80.374415 21.864762 
L 77.067034 21.864762 
z
" clip-path="url(#p8d9c4747aa)" style="fill: #179c4c; opacity: 0.8; stroke: #000000; stroke-width: 0.5; stroke-linejoin: miter"/>
   </g>
   <g id="patch_6">
    <path d="M 80.374415 243.16 
L 83.681796 243.16 
L 83.681796 168.233266 
L 80.374415 168.233266 
z
" clip-path="url(#p8d9c4747aa)" style="fill: #179c4c; opacity: 0.8; stroke: #000000; stroke-width: 0.5; stroke-linejoin: miter"/>
   </g>
   <g id="patch_7">
    <path d="M 83.681796 243.16 
L 86.989176 243.16 
L 86.989176 169.975748 
L 83.681796 169.975748 
z
" clip-path="url(#p8d9c4747aa)" style="fill: #179c4c; opacity: 0.8; stroke: #000000; stroke-width: 0.5; stroke-linejoin: miter"/>
   </g>
   <g id="patch_8">
    <path d="M 86.989176 243.16 
L 90.296557 243.16 
L 90.296557 163.005819 
L 86.989176 163.005819 
z
" clip-path="url(#p8d9c4747aa)" style="fill: #179c4c; opacity: 0.8; stroke: #000000; stroke-width: 0.5; stroke-linejoin: miter"/>
   </g>
   <g id="patch_9">
    <path d="M 90.296557 243.16 
L 93.603938 243.16 
L 93.603938 156.035891 
L 90.296557 156.035891 
z
" clip-path="url(#p8d9c4747aa)" style="fill: #179c4c; opacity: 0.8; stroke: #000000; stroke-width: 0.5; stroke-linejoin: miter"/>
   </g>
   <g id="patch_10">
    <path d="M 93.603938 243.16 
L 96.911319 243.16 
L 96.911319 136.868586 
L 93.603938 136.868586 
z
" clip-path="url(#p8d9c4747aa)" style="fill: #179c4c; opacity: 0.8; stroke: #000000; stroke-width: 0.5; stroke-linejoin: miter"/>
   </g>
   <g id="patch_11">
    <path d="M 96.911319 243.16 
L 100.218699 243.16 
L 100.218699 163.005819 
L 96.911319 163.005819 
z
" clip-path="url(#p8d9c4747aa)" style="fill: #179c4c; opacity: 0.8; stroke: #000000; stroke-width: 0.5; stroke-linejoin: miter"/>
   </g>
   <g id="patch_12">
    <path d="M 100.218699 243.16 
L 103.52608 243.16 
L 103.52608 88.079085 
L 100.218699 88.079085 
z
" clip-path="url(#p8d9c4747aa)" style="fill: #179c4c; opacity: 0.8; stroke: #000000; stroke-width: 0.5; stroke-linejoin: miter"/>
   </g>
   <g id="patch_13">
    <path d="M 103.52608 243.16 
L 106.833461 243.16 
L 106.833461 173.460712 
L 103.52608 173.460712 
z
" clip-path="url(#p8d9c4747aa)" style="fill: #179c4c; opacity: 0.8; stroke: #000000; stroke-width: 0.5; stroke-linejoin: miter"/>
   </g>
   <g id="patch_14">
    <path d="M 106.833461 243.16 
L 110.140842 243.16 
L 110.140842 183.915606 
L 106.833461 183.915606 
z
" clip-path="url(#p8d9c4747aa)" style="fill: #179c4c; opacity: 0.8; stroke: #000000; stroke-width: 0.5; stroke-linejoin: miter"/>
   </g>
   <g id="patch_15">
    <path d="M 110.140842 243.16 
L 113.448222 243.16 
L 113.448222 196.112981 
L 110.140842 196.112981 
z
" clip-path="url(#p8d9c4747aa)" style="fill: #179c4c; opacity: 0.8; stroke: #000000; stroke-width: 0.5; stroke-linejoin: miter"/>
   </g>
   <g id="patch_16">
    <path d="M 113.448222 243.16 
L 116.755603 243.16 
L 116.755603 135.126104 
L 113.448222 135.126104 
z
" clip-path="url(#p8d9c4747aa)" style="fill: #179c4c; opacity: 0.8; stroke: #000000; stroke-width: 0.5; stroke-linejoin: miter"/>
   </g>
   <g id="patch_17">
    <path d="M 116.755603 243.16 
L 120.062984 243.16 
L 120.062984 178.688159 
L 116.755603 178.688159 
z
" clip-path="url(#p8d9c4747aa)" style="fill: #179c4c; opacity: 0.8; stroke: #000000; stroke-width: 0.5; stroke-linejoin: miter"/>
   </g>
   <g id="patch_18">
    <path d="M 120.062984 243.16 
L 123.370365 243.16 
L 123.370365 213.537803 
L 120.062984 213.537803 
z
" clip-path="url(#p8d9c4747aa)" style="fill: #179c4c; opacity: 0.8; stroke: #000000; stroke-width: 0.5; stroke-linejoin: miter"/>
   </g>
   <g id="patch_19">
    <path d="M 123.370365 243.16 
L 126.677745 243.16 
L 126.677745 204.825392 
L 123.370365 204.825392 
z
" clip-path="url(#p8d9c4747aa)" style="fill: #179c4c; opacity: 0.8; stroke: #000000; stroke-width: 0.5; stroke-linejoin: miter"/>
   </g>
   <g id="patch_20">
    <path d="M 126.677745 243.16 
L 129.985126 243.16 
L 129.985126 182.173123 
L 126.677745 182.173123 
z
" clip-path="url(#p8d9c4747aa)" style="fill: #179c4c; opacity: 0.8; stroke: #000000; stroke-width: 0.5; stroke-linejoin: miter"/>
   </g>
   <g id="patch_21">
    <path d="M 129.985126 243.16 
L 133.292507 243.16 
L 133.292507 189.143052 
L 129.985126 189.143052 
z
" clip-path="url(#p8d9c4747aa)" style="fill: #179c4c; opacity: 0.8; stroke: #000000; stroke-width: 0.5; stroke-linejoin: miter"/>
   </g>
   <g id="patch_22">
    <path d="M 133.292507 243.16 
L 136.599887 243.16 
L 136.599887 166.490784 
L 133.292507 166.490784 
z
" clip-path="url(#p8d9c4747aa)" style="fill: #179c4c; opacity: 0.8; stroke: #000000; stroke-width: 0.5; stroke-linejoin: miter"/>
   </g>
   <g id="patch_23">
    <path d="M 136.599887 243.16 
L 139.907268 243.16 
L 139.907268 201.340427 
L 136.599887 201.340427 
z
" clip-path="url(#p8d9c4747aa)" style="fill: #179c4c; opacity: 0.8; stroke: #000000; stroke-width: 0.5; stroke-linejoin: miter"/>
   </g>
   <g id="patch_24">
    <path d="M 139.907268 243.16 
L 143.214649 243.16 
L 143.214649 208.310356 
L 139.907268 208.310356 
z
" clip-path="url(#p8d9c4747aa)" style="fill: #179c4c; opacity: 0.8; stroke: #000000; stroke-width: 0.5; stroke-linejoin: miter"/>
   </g>
   <g id="patch_25">
    <path d="M 143.214649 243.16 
L 146.52203 243.16 
L 146.52203 211.795321 
L 143.214649 211.795321 
z
" clip-path="url(#p8d9c4747aa)" style="fill: #179c4c; opacity: 0.8; stroke: #000000; stroke-width: 0.5; stroke-linejoin: miter"/>
   </g>
   <g id="patch_26">
    <path d="M 146.52203 243.16 
L 149.82941 243.16 
L 149.82941 213.537803 
L 146.52203 213.537803 
z
" clip-path="url(#p8d9c4747aa)" style="fill: #179c4c; opacity: 0.8; stroke: #000000; stroke-width: 0.5; stroke-linejoin: miter"/>
   </g>
   <g id="patch_27">
    <path d="M 149.82941 243.16 
L 153.136791 243.16 
L 153.136791 234.447589 
L 149.82941 234.447589 
z
" clip-path="url(#p8d9c4747aa)" style="fill: #179c4c; opacity: 0.8; stroke: #000000; stroke-width: 0.5; stroke-linejoin: miter"/>
   </g>
   <g id="patch_28">
    <path d="M 153.136791 243.16 
L 156.444172 243.16 
L 156.444172 218.765249 
L 153.136791 218.765249 
z
" clip-path="url(#p8d9c4747aa)" style="fill: #179c4c; opacity: 0.8; stroke: #000000; stroke-width: 0.5; stroke-linejoin: miter"/>
   </g>
   <g id="patch_29">
    <path d="M 156.444172 243.16 
L 159.751553 243.16 
L 159.751553 201.340427 
L 156.444172 201.340427 
z
" clip-path="url(#p8d9c4747aa)" style="fill: #179c4c; opacity: 0.8; stroke: #000000; stroke-width: 0.5; stroke-linejoin: miter"/>
   </g>
   <g id="patch_30">
    <path d="M 159.751553 243.16 
L 163.058933 243.16 
L 163.058933 222.250214 
L 159.751553 222.250214 
z
" clip-path="url(#p8d9c4747aa)" style="fill: #179c4c; opacity: 0.8; stroke: #000000; stroke-width: 0.5; stroke-linejoin: miter"/>
   </g>
   <g id="patch_31">
    <path d="M 163.058933 243.16 
L 166.366314 243.16 
L 166.366314 223.992696 
L 163.058933 223.992696 
z
" clip-path="url(#p8d9c4747aa)" style="fill: #179c4c; opacity: 0.8; stroke: #000000; stroke-width: 0.5; stroke-linejoin: miter"/>
   </g>
   <g id="patch_32">
    <path d="M 166.366314 243.16 
L 169.673695 243.16 
L 169.673695 215.280285 
L 166.366314 215.280285 
z
" clip-path="url(#p8d9c4747aa)" style="fill: #179c4c; opacity: 0.8; stroke: #000000; stroke-width: 0.5; stroke-linejoin: miter"/>
   </g>
   <g id="patch_33">
    <path d="M 169.673695 243.16 
L 172.981076 243.16 
L 172.981076 225.735178 
L 169.673695 225.735178 
z
" clip-path="url(#p8d9c4747aa)" style="fill: #179c4c; opacity: 0.8; stroke: #000000; stroke-width: 0.5; stroke-linejoin: miter"/>
   </g>
   <g id="patch_34">
    <path d="M 172.981076 243.16 
L 176.288456 243.16 
L 176.288456 229.220142 
L 172.981076 229.220142 
z
" clip-path="url(#p8d9c4747aa)" style="fill: #179c4c; opacity: 0.8; stroke: #000000; stroke-width: 0.5; stroke-linejoin: miter"/>
   </g>
   <g id="patch_35">
    <path d="M 176.288456 243.16 
L 179.595837 243.16 
L 179.595837 230.962625 
L 176.288456 230.962625 
z
" clip-path="url(#p8d9c4747aa)" style="fill: #179c4c; opacity: 0.8; stroke: #000000; stroke-width: 0.5; stroke-linejoin: miter"/>
   </g>
   <g id="patch_36">
    <path d="M 179.595837 243.16 
L 182.903218 243.16 
L 182.903218 229.220142 
L 179.595837 229.220142 
z
" clip-path="url(#p8d9c4747aa)" style="fill: #179c4c; opacity: 0.8; stroke: #000000; stroke-width: 0.5; stroke-linejoin: miter"/>
   </g>
   <g id="patch_37">
    <path d="M 182.903218 243.16 
L 186.210599 243.16 
L 186.210599 223.992696 
L 182.903218 223.992696 
z
" clip-path="url(#p8d9c4747aa)" style="fill: #179c4c; opacity: 0.8; stroke: #000000; stroke-width: 0.5; stroke-linejoin: miter"/>
   </g>
   <g id="patch_38">
    <path d="M 186.210599 243.16 
L 189.517979 243.16 
L 189.517979 225.735178 
L 186.210599 225.735178 
z
" clip-path="url(#p8d9c4747aa)" style="fill: #179c4c; opacity: 0.8; stroke: #000000; stroke-width: 0.5; stroke-linejoin: miter"/>
   </g>
   <g id="patch_39">
    <path d="M 189.517979 243.16 
L 192.82536 243.16 
L 192.82536 222.250214 
L 189.517979 222.250214 
z
" clip-path="url(#p8d9c4747aa)" style="fill: #179c4c; opacity: 0.8; stroke: #000000; stroke-width: 0.5; stroke-linejoin: miter"/>
   </g>
   <g id="patch_40">
    <path d="M 192.82536 243.16 
L 196.132741 243.16 
L 196.132741 237.932553 
L 192.82536 237.932553 
z
" clip-path="url(#p8d9c4747aa)" style="fill: #179c4c; opacity: 0.8; stroke: #000000; stroke-width: 0.5; stroke-linejoin: miter"/>
   </g>
   <g id="patch_41">
    <path d="M 196.132741 243.16 
L 199.440122 243.16 
L 199.440122 237.932553 
L 196.132741 237.932553 
z
" clip-path="url(#p8d9c4747aa)" style="fill: #179c4c; opacity: 0.8; stroke: #000000; stroke-width: 0.5; stroke-linejoin: miter"/>
   </g>
   <g id="patch_42">
    <path d="M 199.440122 243.16 
L 202.747502 243.16 
L 202.747502 230.962625 
L 199.440122 230.962625 
z
" clip-path="url(#p8d9c4747aa)" style="fill: #179c4c; opacity: 0.8; stroke: #000000; stroke-width: 0.5; stroke-linejoin: miter"/>
   </g>
   <g id="patch_43">
    <path d="M 202.747502 243.16 
L 206.054883 243.16 
L 206.054883 243.16 
L 202.747502 243.16 
z
" clip-path="url(#p8d9c4747aa)" style="fill: #179c4c; opacity: 0.8; stroke: #000000; stroke-width: 0.5; stroke-linejoin: miter"/>
   </g>
   <g id="patch_44">
    <path d="M 206.054883 243.16 
L 209.362264 243.16 
L 209.362264 243.16 
L 206.054883 243.16 
z
" clip-path="url(#p8d9c4747aa)" style="fill: #179c4c; opacity: 0.8; stroke: #000000; stroke-width: 0.5; stroke-linejoin: miter"/>
   </g>
   <g id="patch_45">
    <path d="M 209.362264 243.16 
L 212.669644 243.16 
L 212.669644 241.417518 
L 209.362264 241.417518 
z
" clip-path="url(#p8d9c4747aa)" style="fill: #179c4c; opacity: 0.8; stroke: #000000; stroke-width: 0.5; stroke-linejoin: miter"/>
   </g>
   <g id="patch_46">
    <path d="M 212.669644 243.16 
L 215.977025 243.16 
L 215.977025 243.16 
L 212.669644 243.16 
z
" clip-path="url(#p8d9c4747aa)" style="fill: #179c4c; opacity: 0.8; stroke: #000000; stroke-width: 0.5; stroke-linejoin: miter"/>
   </g>
   <g id="patch_47">
    <path d="M 215.977025 243.16 
L 219.284406 243.16 
L 219.284406 243.16 
L 215.977025 243.16 
z
" clip-path="url(#p8d9c4747aa)" style="fill: #179c4c; opacity: 0.8; stroke: #000000; stroke-width: 0.5; stroke-linejoin: miter"/>
   </g>
   <g id="patch_48">
    <path d="M 219.284406 243.16 
L 222.591787 243.16 
L 222.591787 243.16 
L 219.284406 243.16 
z
" clip-path="url(#p8d9c4747aa)" style="fill: #179c4c; opacity: 0.8; stroke: #000000; stroke-width: 0.5; stroke-linejoin: miter"/>
   </g>
   <g id="patch_49">
    <path d="M 222.591787 243.16 
L 225.899167 243.16 
L 225.899167 243.16 
L 222.591787 243.16 
z
" clip-path="url(#p8d9c4747aa)" style="fill: #179c4c; opacity: 0.8; stroke: #000000; stroke-width: 0.5; stroke-linejoin: miter"/>
   </g>
   <g id="patch_50">
    <path d="M 225.899167 243.16 
L 229.206548 243.16 
L 229.206548 243.16 
L 225.899167 243.16 
z
" clip-path="url(#p8d9c4747aa)" style="fill: #179c4c; opacity: 0.8; stroke: #000000; stroke-width: 0.5; stroke-linejoin: miter"/>
   </g>
   <g id="patch_51">
    <path d="M 229.206548 243.16 
L 232.513929 243.16 
L 232.513929 243.16 
L 229.206548 243.16 
z
" clip-path="url(#p8d9c4747aa)" style="fill: #179c4c; opacity: 0.8; stroke: #000000; stroke-width: 0.5; stroke-linejoin: miter"/>
   </g>
   <g id="patch_52">
    <path d="M 232.513929 243.16 
L 235.82131 243.16 
L 235.82131 243.16 
L 232.513929 243.16 
z
" clip-path="url(#p8d9c4747aa)" style="fill: #179c4c; opacity: 0.8; stroke: #000000; stroke-width: 0.5; stroke-linejoin: miter"/>
   </g>
   <g id="patch_53">
    <path d="M 235.82131 243.16 
L 239.12869 243.16 
L 239.12869 243.16 
L 235.82131 243.16 
z
" clip-path="url(#p8d9c4747aa)" style="fill: #179c4c; opacity: 0.8; stroke: #000000; stroke-width: 0.5; stroke-linejoin: miter"/>
   </g>
   <g id="patch_54">
    <path d="M 239.12869 243.16 
L 242.436071 243.16 
L 242.436071 243.16 
L 239.12869 243.16 
z
" clip-path="url(#p8d9c4747aa)" style="fill: #179c4c; opacity: 0.8; stroke: #000000; stroke-width: 0.5; stroke-linejoin: miter"/>
   </g>
   <g id="patch_55">
    <path d="M 242.436071 243.16 
L 245.743452 243.16 
L 245.743452 243.16 
L 242.436071 243.16 
z
" clip-path="url(#p8d9c4747aa)" style="fill: #179c4c; opacity: 0.8; stroke: #000000; stroke-width: 0.5; stroke-linejoin: miter"/>
   </g>
   <g id="patch_56">
    <path d="M 245.743452 243.16 
L 249.050833 243.16 
L 249.050833 241.417518 
L 245.743452 241.417518 
z
" clip-path="url(#p8d9c4747aa)" style="fill: #179c4c; opacity: 0.8; stroke: #000000; stroke-width: 0.5; stroke-linejoin: miter"/>
   </g>
   <g id="patch_57">
    <path d="M 249.050833 243.16 
L 252.358213 243.16 
L 252.358213 243.16 
L 249.050833 243.16 
z
" clip-path="url(#p8d9c4747aa)" style="fill: #179c4c; opacity: 0.8; stroke: #000000; stroke-width: 0.5; stroke-linejoin: miter"/>
   </g>
   <g id="patch_58">
    <path d="M 252.358213 243.16 
L 255.665594 243.16 
L 255.665594 243.16 
L 252.358213 243.16 
z
" clip-path="url(#p8d9c4747aa)" style="fill: #179c4c; opacity: 0.8; stroke: #000000; stroke-width: 0.5; stroke-linejoin: miter"/>
   </g>
   <g id="patch_59">
    <path d="M 255.665594 243.16 
L 258.972975 243.16 
L 258.972975 243.16 
L 255.665594 243.16 
z
" clip-path="url(#p8d9c4747aa)" style="fill: #179c4c; opacity: 0.8; stroke: #000000; stroke-width: 0.5; stroke-linejoin: miter"/>
   </g>
   <g id="patch_60">
    <path d="M 258.972975 243.16 
L 262.280356 243.16 
L 262.280356 243.16 
L 258.972975 243.16 
z
" clip-path="url(#p8d9c4747aa)" style="fill: #179c4c; opacity: 0.8; stroke: #000000; stroke-width: 0.5; stroke-linejoin: miter"/>
   </g>
   <g id="patch_61">
    <path d="M 262.280356 243.16 
L 265.587736 243.16 
L 265.587736 241.417518 
L 262.280356 241.417518 
z
" clip-path="url(#p8d9c4747aa)" style="fill: #179c4c; opacity: 0.8; stroke: #000000; stroke-width: 0.5; stroke-linejoin: miter"/>
   </g>
   <g id="patch_62">
    <path d="M 265.587736 243.16 
L 268.895117 243.16 
L 268.895117 243.16 
L 265.587736 243.16 
z
" clip-path="url(#p8d9c4747aa)" style="fill: #179c4c; opacity: 0.8; stroke: #000000; stroke-width: 0.5; stroke-linejoin: miter"/>
   </g>
   <g id="patch_63">
    <path d="M 268.895117 243.16 
L 272.202498 243.16 
L 272.202498 243.16 
L 268.895117 243.16 
z
" clip-path="url(#p8d9c4747aa)" style="fill: #179c4c; opacity: 0.8; stroke: #000000; stroke-width: 0.5; stroke-linejoin: miter"/>
   </g>
   <g id="patch_64">
    <path d="M 272.202498 243.16 
L 275.509878 243.16 
L 275.509878 243.16 
L 272.202498 243.16 
z
" clip-path="url(#p8d9c4747aa)" style="fill: #179c4c; opacity: 0.8; stroke: #000000; stroke-width: 0.5; stroke-linejoin: miter"/>
   </g>
   <g id="patch_65">
    <path d="M 275.509878 243.16 
L 278.817259 243.16 
L 278.817259 243.16 
L 275.509878 243.16 
z
" clip-path="url(#p8d9c4747aa)" style="fill: #179c4c; opacity: 0.8; stroke: #000000; stroke-width: 0.5; stroke-linejoin: miter"/>
   </g>
   <g id="patch_66">
    <path d="M 278.817259 243.16 
L 282.12464 243.16 
L 282.12464 241.417518 
L 278.817259 241.417518 
z
" clip-path="url(#p8d9c4747aa)" style="fill: #179c4c; opacity: 0.8; stroke: #000000; stroke-width: 0.5; stroke-linejoin: miter"/>
   </g>
   <g id="patch_67">
    <path d="M 282.12464 243.16 
L 285.432021 243.16 
L 285.432021 243.16 
L 282.12464 243.16 
z
" clip-path="url(#p8d9c4747aa)" style="fill: #179c4c; opacity: 0.8; stroke: #000000; stroke-width: 0.5; stroke-linejoin: miter"/>
   </g>
   <g id="patch_68">
    <path d="M 285.432021 243.16 
L 288.739401 243.16 
L 288.739401 243.16 
L 285.432021 243.16 
z
" clip-path="url(#p8d9c4747aa)" style="fill: #179c4c; opacity: 0.8; stroke: #000000; stroke-width: 0.5; stroke-linejoin: miter"/>
   </g>
   <g id="patch_69">
    <path d="M 288.739401 243.16 
L 292.046782 243.16 
L 292.046782 243.16 
L 288.739401 243.16 
z
" clip-path="url(#p8d9c4747aa)" style="fill: #179c4c; opacity: 0.8; stroke: #000000; stroke-width: 0.5; stroke-linejoin: miter"/>
   </g>
   <g id="patch_70">
    <path d="M 292.046782 243.16 
L 295.354163 243.16 
L 295.354163 241.417518 
L 292.046782 241.417518 
z
" clip-path="url(#p8d9c4747aa)" style="fill: #179c4c; opacity: 0.8; stroke: #000000; stroke-width: 0.5; stroke-linejoin: miter"/>
   </g>
   <g id="patch_71">
    <path d="M 295.354163 243.16 
L 298.661544 243.16 
L 298.661544 243.16 
L 295.354163 243.16 
z
" clip-path="url(#p8d9c4747aa)" style="fill: #179c4c; opacity: 0.8; stroke: #000000; stroke-width: 0.5; stroke-linejoin: miter"/>
   </g>
   <g id="patch_72">
    <path d="M 298.661544 243.16 
L 301.968924 243.16 
L 301.968924 243.16 
L 298.661544 243.16 
z
" clip-path="url(#p8d9c4747aa)" style="fill: #179c4c; opacity: 0.8; stroke: #000000; stroke-width: 0.5; stroke-linejoin: miter"/>
   </g>
   <g id="patch_73">
    <path d="M 301.968924 243.16 
L 305.276305 243.16 
L 305.276305 243.16 
L 301.968924 243.16 
z
" clip-path="url(#p8d9c4747aa)" style="fill: #179c4c; opacity: 0.8; stroke: #000000; stroke-width: 0.5; stroke-linejoin: miter"/>
   </g>
   <g id="patch_74">
    <path d="M 305.276305 243.16 
L 308.583686 243.16 
L 308.583686 243.16 
L 305.276305 243.16 
z
" clip-path="url(#p8d9c4747aa)" style="fill: #179c4c; opacity: 0.8; stroke: #000000; stroke-width: 0.5; stroke-linejoin: miter"/>
   </g>
   <g id="patch_75">
    <path d="M 308.583686 243.16 
L 311.891067 243.16 
L 311.891067 243.16 
L 308.583686 243.16 
z
" clip-path="url(#p8d9c4747aa)" style="fill: #179c4c; opacity: 0.8; stroke: #000000; stroke-width: 0.5; stroke-linejoin: miter"/>
   </g>
   <g id="patch_76">
    <path d="M 311.891067 243.16 
L 315.198447 243.16 
L 315.198447 239.675036 
L 311.891067 239.675036 
z
" clip-path="url(#p8d9c4747aa)" style="fill: #179c4c; opacity: 0.8; stroke: #000000; stroke-width: 0.5; stroke-linejoin: miter"/>
   </g>
   <g id="patch_77">
    <path d="M 315.198447 243.16 
L 318.505828 243.16 
L 318.505828 243.16 
L 315.198447 243.16 
z
" clip-path="url(#p8d9c4747aa)" style="fill: #179c4c; opacity: 0.8; stroke: #000000; stroke-width: 0.5; stroke-linejoin: miter"/>
   </g>
   <g id="patch_78">
    <path d="M 318.505828 243.16 
L 321.813209 243.16 
L 321.813209 243.16 
L 318.505828 243.16 
z
" clip-path="url(#p8d9c4747aa)" style="fill: #179c4c; opacity: 0.8; stroke: #000000; stroke-width: 0.5; stroke-linejoin: miter"/>
   </g>
   <g id="patch_79">
    <path d="M 321.813209 243.16 
L 325.12059 243.16 
L 325.12059 243.16 
L 321.813209 243.16 
z
" clip-path="url(#p8d9c4747aa)" style="fill: #179c4c; opacity: 0.8; stroke: #000000; stroke-width: 0.5; stroke-linejoin: miter"/>
   </g>
   <g id="patch_80">
    <path d="M 325.12059 243.16 
L 328.42797 243.16 
L 328.42797 243.16 
L 325.12059 243.16 
z
" clip-path="url(#p8d9c4747aa)" style="fill: #179c4c; opacity: 0.8; stroke: #000000; stroke-width: 0.5; stroke-linejoin: miter"/>
   </g>
   <g id="patch_81">
    <path d="M 328.42797 243.16 
L 331.735351 243.16 
L 331.735351 243.16 
L 328.42797 243.16 
z
" clip-path="url(#p8d9c4747aa)" style="fill: #179c4c; opacity: 0.8; stroke: #000000; stroke-width: 0.5; stroke-linejoin: miter"/>
   </g>
   <g id="patch_82">
    <path d="M 331.735351 243.16 
L 335.042732 243.16 
L 335.042732 243.16 
L 331.735351 243.16 
z
" clip-path="url(#p8d9c4747aa)" style="fill: #179c4c; opacity: 0.8; stroke: #000000; stroke-width: 0.5; stroke-linejoin: miter"/>
   </g>
   <g id="patch_83">
    <path d="M 335.042732 243.16 
L 338.350113 243.16 
L 338.350113 243.16 
L 335.042732 243.16 
z
" clip-path="url(#p8d9c4747aa)" style="fill: #179c4c; opacity: 0.8; stroke: #000000; stroke-width: 0.5; stroke-linejoin: miter"/>
   </g>
   <g id="patch_84">
    <path d="M 338.350113 243.16 
L 341.657493 243.16 
L 341.657493 243.16 
L 338.350113 243.16 
z
" clip-path="url(#p8d9c4747aa)" style="fill: #179c4c; opacity: 0.8; stroke: #000000; stroke-width: 0.5; stroke-linejoin: miter"/>
   </g>
   <g id="patch_85">
    <path d="M 341.657493 243.16 
L 344.964874 243.16 
L 344.964874 243.16 
L 341.657493 243.16 
z
" clip-path="url(#p8d9c4747aa)" style="fill: #179c4c; opacity: 0.8; stroke: #000000; stroke-width: 0.5; stroke-linejoin: miter"/>
   </g>
   <g id="patch_86">
    <path d="M 344.964874 243.16 
L 348.272255 243.16 
L 348.272255 243.16 
L 344.964874 243.16 
z
" clip-path="url(#p8d9c4747aa)" style="fill: #179c4c; opacity: 0.8; stroke: #000000; stroke-width: 0.5; stroke-linejoin: miter"/>
   </g>
   <g id="patch_87">
    <path d="M 348.272255 243.16 
L 351.579635 243.16 
L 351.579635 243.16 
L 348.272255 243.16 
z
" clip-path="url(#p8d9c4747aa)" style="fill: #179c4c; opacity: 0.8; stroke: #000000; stroke-width: 0.5; stroke-linejoin: miter"/>
   </g>
   <g id="patch_88">
    <path d="M 351.579635 243.16 
L 354.887016 243.16 
L 354.887016 243.16 
L 351.579635 243.16 
z
" clip-path="url(#p8d9c4747aa)" style="fill: #179c4c; opacity: 0.8; stroke: #000000; stroke-width: 0.5; stroke-linejoin: miter"/>
   </g>
   <g id="patch_89">
    <path d="M 354.887016 243.16 
L 358.194397 243.16 
L 358.194397 241.417518 
L 354.887016 241.417518 
z
" clip-path="url(#p8d9c4747aa)" style="fill: #179c4c; opacity: 0.8; stroke: #000000; stroke-width: 0.5; stroke-linejoin: miter"/>
   </g>
   <g id="patch_90">
    <path d="M 358.194397 243.16 
L 361.501778 243.16 
L 361.501778 243.16 
L 358.194397 243.16 
z
" clip-path="url(#p8d9c4747aa)" style="fill: #179c4c; opacity: 0.8; stroke: #000000; stroke-width: 0.5; stroke-linejoin: miter"/>
   </g>
   <g id="patch_91">
    <path d="M 361.501778 243.16 
L 364.809158 243.16 
L 364.809158 243.16 
L 361.501778 243.16 
z
" clip-path="url(#p8d9c4747aa)" style="fill: #179c4c; opacity: 0.8; stroke: #000000; stroke-width: 0.5; stroke-linejoin: miter"/>
   </g>
   <g id="patch_92">
    <path d="M 364.809158 243.16 
L 368.116539 243.16 
L 368.116539 243.16 
L 364.809158 243.16 
z
" clip-path="url(#p8d9c4747aa)" style="fill: #179c4c; opacity: 0.8; stroke: #000000; stroke-width: 0.5; stroke-linejoin: miter"/>
   </g>
   <g id="patch_93">
    <path d="M 368.116539 243.16 
L 371.42392 243.16 
L 371.42392 243.16 
L 368.116539 243.16 
z
" clip-path="url(#p8d9c4747aa)" style="fill: #179c4c; opacity: 0.8; stroke: #000000; stroke-width: 0.5; stroke-linejoin: miter"/>
   </g>
   <g id="patch_94">
    <path d="M 371.42392 243.16 
L 374.731301 243.16 
L 374.731301 243.16 
L 371.42392 243.16 
z
" clip-path="url(#p8d9c4747aa)" style="fill: #179c4c; opacity: 0.8; stroke: #000000; stroke-width: 0.5; stroke-linejoin: miter"/>
   </g>
   <g id="patch_95">
    <path d="M 374.731301 243.16 
L 378.038681 243.16 
L 378.038681 243.16 
L 374.731301 243.16 
z
" clip-path="url(#p8d9c4747aa)" style="fill: #179c4c; opacity: 0.8; stroke: #000000; stroke-width: 0.5; stroke-linejoin: miter"/>
   </g>
   <g id="patch_96">
    <path d="M 378.038681 243.16 
L 381.346062 243.16 
L 381.346062 243.16 
L 378.038681 243.16 
z
" clip-path="url(#p8d9c4747aa)" style="fill: #179c4c; opacity: 0.8; stroke: #000000; stroke-width: 0.5; stroke-linejoin: miter"/>
   </g>
   <g id="patch_97">
    <path d="M 381.346062 243.16 
L 384.653443 243.16 
L 384.653443 243.16 
L 381.346062 243.16 
z
" clip-path="url(#p8d9c4747aa)" style="fill: #179c4c; opacity: 0.8; stroke: #000000; stroke-width: 0.5; stroke-linejoin: miter"/>
   </g>
   <g id="patch_98">
    <path d="M 384.653443 243.16 
L 387.960824 243.16 
L 387.960824 243.16 
L 384.653443 243.16 
z
" clip-path="url(#p8d9c4747aa)" style="fill: #179c4c; opacity: 0.8; stroke: #000000; stroke-width: 0.5; stroke-linejoin: miter"/>
   </g>
   <g id="patch_99">
    <path d="M 387.960824 243.16 
L 391.268204 243.16 
L 391.268204 243.16 
L 387.960824 243.16 
z
" clip-path="url(#p8d9c4747aa)" style="fill: #179c4c; opacity: 0.8; stroke: #000000; stroke-width: 0.5; stroke-linejoin: miter"/>
   </g>
   <g id="patch_100">
    <path d="M 391.268204 243.16 
L 394.575585 243.16 
L 394.575585 243.16 
L 391.268204 243.16 
z
" clip-path="url(#p8d9c4747aa)" style="fill: #179c4c; opacity: 0.8; stroke: #000000; stroke-width: 0.5; stroke-linejoin: miter"/>
   </g>
   <g id="patch_101">
    <path d="M 394.575585 243.16 
L 397.882966 243.16 
L 397.882966 243.16 
L 394.575585 243.16 
z
" clip-path="url(#p8d9c4747aa)" style="fill: #179c4c; opacity: 0.8; stroke: #000000; stroke-width: 0.5; stroke-linejoin: miter"/>
   </g>
   <g id="patch_102">
    <path d="M 397.882966 243.16 
L 401.190347 243.16 
L 401.190347 243.16 
L 397.882966 243.16 
z
" clip-path="url(#p8d9c4747aa)" style="fill: #179c4c; opacity: 0.8; stroke: #000000; stroke-width: 0.5; stroke-linejoin: miter"/>
   </g>
   <g id="patch_103">
    <path d="M 401.190347 243.16 
L 404.497727 243.16 
L 404.497727 241.417518 
L 401.190347 241.417518 
z
" clip-path="url(#p8d9c4747aa)" style="fill: #179c4c; opacity: 0.8; stroke: #000000; stroke-width: 0.5; stroke-linejoin: miter"/>
   </g>
   <g id="matplotlib.axis_1">
    <g id="xtick_1">
     <g id="line2d_1">
      <defs>
       <path id="mf20ef43b2d" d="M 0 0 
L 0 3.5 
" style="stroke: #000000; stroke-width: 0.8"/>
      </defs>
      <g>
       <use xlink:href="#mf20ef43b2d" x="100.218699" y="243.16" style="stroke: #000000; stroke-width: 0.8"/>
      </g>
     </g>
     <g id="text_1">
      <!-- 20 -->
      <g transform="translate(93.856199 257.758438) scale(0.1 -0.1)">
       <defs>
        <path id="DejaVuSans-32" d="M 1228 531 
L 3431 531 
L 3431 0 
L 469 0 
L 469 531 
Q 828 903 1448 1529 
Q 2069 2156 2228 2338 
Q 2531 2678 2651 2914 
Q 2772 3150 2772 3378 
Q 2772 3750 2511 3984 
Q 2250 4219 1831 4219 
Q 1534 4219 1204 4116 
Q 875 4013 500 3803 
L 500 4441 
Q 881 4594 1212 4672 
Q 1544 4750 1819 4750 
Q 2544 4750 2975 4387 
Q 3406 4025 3406 3419 
Q 3406 3131 3298 2873 
Q 3191 2616 2906 2266 
Q 2828 2175 2409 1742 
Q 1991 1309 1228 531 
z
" transform="scale(0.015625)"/>
        <path id="DejaVuSans-30" d="M 2034 4250 
Q 1547 4250 1301 3770 
Q 1056 3291 1056 2328 
Q 1056 1369 1301 889 
Q 1547 409 2034 409 
Q 2525 409 2770 889 
Q 3016 1369 3016 2328 
Q 3016 3291 2770 3770 
Q 2525 4250 2034 4250 
z
M 2034 4750 
Q 2819 4750 3233 4129 
Q 3647 3509 3647 2328 
Q 3647 1150 3233 529 
Q 2819 -91 2034 -91 
Q 1250 -91 836 529 
Q 422 1150 422 2328 
Q 422 3509 836 4129 
Q 1250 4750 2034 4750 
z
" transform="scale(0.015625)"/>
       </defs>
       <use xlink:href="#DejaVuSans-32"/>
       <use xlink:href="#DejaVuSans-30" x="63.623047"/>
      </g>
     </g>
    </g>
    <g id="xtick_2">
     <g id="line2d_2">
      <g>
       <use xlink:href="#mf20ef43b2d" x="166.366314" y="243.16" style="stroke: #000000; stroke-width: 0.8"/>
      </g>
     </g>
     <g id="text_2">
      <!-- 40 -->
      <g transform="translate(160.003814 257.758438) scale(0.1 -0.1)">
       <defs>
        <path id="DejaVuSans-34" d="M 2419 4116 
L 825 1625 
L 2419 1625 
L 2419 4116 
z
M 2253 4666 
L 3047 4666 
L 3047 1625 
L 3713 1625 
L 3713 1100 
L 3047 1100 
L 3047 0 
L 2419 0 
L 2419 1100 
L 313 1100 
L 313 1709 
L 2253 4666 
z
" transform="scale(0.015625)"/>
       </defs>
       <use xlink:href="#DejaVuSans-34"/>
       <use xlink:href="#DejaVuSans-30" x="63.623047"/>
      </g>
     </g>
    </g>
    <g id="xtick_3">
     <g id="line2d_3">
      <g>
       <use xlink:href="#mf20ef43b2d" x="232.513929" y="243.16" style="stroke: #000000; stroke-width: 0.8"/>
      </g>
     </g>
     <g id="text_3">
      <!-- 60 -->
      <g transform="translate(226.151429 257.758438) scale(0.1 -0.1)">
       <defs>
        <path id="DejaVuSans-36" d="M 2113 2584 
Q 1688 2584 1439 2293 
Q 1191 2003 1191 1497 
Q 1191 994 1439 701 
Q 1688 409 2113 409 
Q 2538 409 2786 701 
Q 3034 994 3034 1497 
Q 3034 2003 2786 2293 
Q 2538 2584 2113 2584 
z
M 3366 4563 
L 3366 3988 
Q 3128 4100 2886 4159 
Q 2644 4219 2406 4219 
Q 1781 4219 1451 3797 
Q 1122 3375 1075 2522 
Q 1259 2794 1537 2939 
Q 1816 3084 2150 3084 
Q 2853 3084 3261 2657 
Q 3669 2231 3669 1497 
Q 3669 778 3244 343 
Q 2819 -91 2113 -91 
Q 1303 -91 875 529 
Q 447 1150 447 2328 
Q 447 3434 972 4092 
Q 1497 4750 2381 4750 
Q 2619 4750 2861 4703 
Q 3103 4656 3366 4563 
z
" transform="scale(0.015625)"/>
       </defs>
       <use xlink:href="#DejaVuSans-36"/>
       <use xlink:href="#DejaVuSans-30" x="63.623047"/>
      </g>
     </g>
    </g>
    <g id="xtick_4">
     <g id="line2d_4">
      <g>
       <use xlink:href="#mf20ef43b2d" x="298.661544" y="243.16" style="stroke: #000000; stroke-width: 0.8"/>
      </g>
     </g>
     <g id="text_4">
      <!-- 80 -->
      <g transform="translate(292.299044 257.758438) scale(0.1 -0.1)">
       <defs>
        <path id="DejaVuSans-38" d="M 2034 2216 
Q 1584 2216 1326 1975 
Q 1069 1734 1069 1313 
Q 1069 891 1326 650 
Q 1584 409 2034 409 
Q 2484 409 2743 651 
Q 3003 894 3003 1313 
Q 3003 1734 2745 1975 
Q 2488 2216 2034 2216 
z
M 1403 2484 
Q 997 2584 770 2862 
Q 544 3141 544 3541 
Q 544 4100 942 4425 
Q 1341 4750 2034 4750 
Q 2731 4750 3128 4425 
Q 3525 4100 3525 3541 
Q 3525 3141 3298 2862 
Q 3072 2584 2669 2484 
Q 3125 2378 3379 2068 
Q 3634 1759 3634 1313 
Q 3634 634 3220 271 
Q 2806 -91 2034 -91 
Q 1263 -91 848 271 
Q 434 634 434 1313 
Q 434 1759 690 2068 
Q 947 2378 1403 2484 
z
M 1172 3481 
Q 1172 3119 1398 2916 
Q 1625 2713 2034 2713 
Q 2441 2713 2670 2916 
Q 2900 3119 2900 3481 
Q 2900 3844 2670 4047 
Q 2441 4250 2034 4250 
Q 1625 4250 1398 4047 
Q 1172 3844 1172 3481 
z
" transform="scale(0.015625)"/>
       </defs>
       <use xlink:href="#DejaVuSans-38"/>
       <use xlink:href="#DejaVuSans-30" x="63.623047"/>
      </g>
     </g>
    </g>
    <g id="xtick_5">
     <g id="line2d_5">
      <g>
       <use xlink:href="#mf20ef43b2d" x="364.809158" y="243.16" style="stroke: #000000; stroke-width: 0.8"/>
      </g>
     </g>
     <g id="text_5">
      <!-- 100 -->
      <g transform="translate(355.265408 257.758438) scale(0.1 -0.1)">
       <defs>
        <path id="DejaVuSans-31" d="M 794 531 
L 1825 531 
L 1825 4091 
L 703 3866 
L 703 4441 
L 1819 4666 
L 2450 4666 
L 2450 531 
L 3481 531 
L 3481 0 
L 794 0 
L 794 531 
z
" transform="scale(0.015625)"/>
       </defs>
       <use xlink:href="#DejaVuSans-31"/>
       <use xlink:href="#DejaVuSans-30" x="63.623047"/>
       <use xlink:href="#DejaVuSans-30" x="127.246094"/>
      </g>
     </g>
    </g>
    <g id="text_6">
     <!-- Peptide length (aa) -->
     <g transform="translate(171.989688 272.95625) scale(0.12 -0.12)">
      <defs>
       <path id="DejaVuSans-BoldOblique-50" d="M 1044 4666 
L 3041 4666 
Q 3775 4666 4189 4330 
Q 4603 3994 4603 3397 
Q 4603 3031 4465 2701 
Q 4328 2372 4072 2125 
Q 3794 1859 3409 1739 
Q 3025 1619 2444 1619 
L 1650 1619 
L 1338 0 
L 134 0 
L 1044 4666 
z
M 2081 3794 
L 1825 2491 
L 2491 2491 
Q 2916 2491 3141 2691 
Q 3366 2891 3366 3272 
Q 3366 3525 3205 3659 
Q 3044 3794 2741 3794 
L 2081 3794 
z
" transform="scale(0.015625)"/>
       <path id="DejaVuSans-BoldOblique-65" d="M 4025 1619 
L 3988 1441 
L 1369 1441 
Q 1369 1422 1366 1386 
Q 1363 1350 1363 1331 
Q 1363 991 1567 822 
Q 1772 653 2181 653 
Q 2534 653 2926 759 
Q 3319 866 3750 1075 
L 3578 206 
Q 3169 56 2764 -17 
Q 2359 -91 1941 -91 
Q 1122 -91 676 287 
Q 231 666 231 1356 
Q 231 1756 373 2132 
Q 516 2509 788 2822 
Q 1109 3197 1557 3390 
Q 2006 3584 2553 3584 
Q 3263 3584 3680 3206 
Q 4097 2828 4097 2188 
Q 4097 2063 4080 1923 
Q 4063 1784 4025 1619 
z
M 2969 2131 
Q 2978 2172 2983 2214 
Q 2988 2256 2988 2297 
Q 2988 2547 2838 2694 
Q 2688 2841 2431 2841 
Q 2103 2841 1873 2661 
Q 1644 2481 1522 2131 
L 2969 2131 
z
" transform="scale(0.015625)"/>
       <path id="DejaVuSans-BoldOblique-70" d="M 1422 506 
L 1063 -1331 
L -63 -1331 
L 878 3500 
L 2003 3500 
L 1900 2988 
Q 2156 3294 2437 3439 
Q 2719 3584 3053 3584 
Q 3644 3584 3987 3209 
Q 4331 2834 4331 2188 
Q 4331 1784 4211 1403 
Q 4091 1022 3866 709 
Q 3581 316 3223 112 
Q 2866 -91 2456 -91 
Q 2097 -91 1845 54 
Q 1594 200 1422 506 
z
M 2597 2772 
Q 2166 2772 1892 2373 
Q 1619 1975 1619 1338 
Q 1619 1050 1773 886 
Q 1928 722 2203 722 
Q 2625 722 2900 1114 
Q 3175 1506 3175 2119 
Q 3175 2438 3026 2605 
Q 2878 2772 2597 2772 
z
" transform="scale(0.015625)"/>
       <path id="DejaVuSans-BoldOblique-74" d="M 2303 4494 
L 2113 3500 
L 3256 3500 
L 3097 2700 
L 1953 2700 
L 1666 1219 
Q 1653 1169 1648 1134 
Q 1644 1100 1644 1069 
Q 1644 925 1739 862 
Q 1834 800 2059 800 
L 2638 800 
L 2478 0 
L 1538 0 
Q 1031 0 765 212 
Q 500 425 500 825 
Q 500 913 509 1013 
Q 519 1113 538 1216 
L 825 2700 
L 275 2700 
L 428 3500 
L 984 3500 
L 1178 4494 
L 2303 4494 
z
" transform="scale(0.015625)"/>
       <path id="DejaVuSans-BoldOblique-69" d="M 878 3500 
L 2003 3500 
L 1319 0 
L 197 0 
L 878 3500 
z
M 1141 4863 
L 2266 4863 
L 2088 3950 
L 959 3950 
L 1141 4863 
z
" transform="scale(0.015625)"/>
       <path id="DejaVuSans-BoldOblique-64" d="M 1966 722 
Q 2397 722 2667 1119 
Q 2938 1516 2938 2156 
Q 2938 2447 2786 2609 
Q 2634 2772 2363 2772 
Q 1938 2772 1663 2380 
Q 1388 1988 1388 1375 
Q 1388 1056 1536 889 
Q 1684 722 1966 722 
z
M 3144 2988 
L 3506 4863 
L 4634 4863 
L 3688 0 
L 2559 0 
L 2663 506 
Q 2406 200 2125 54 
Q 1844 -91 1509 -91 
Q 919 -91 575 284 
Q 231 659 231 1306 
Q 231 1709 351 2090 
Q 472 2472 697 2784 
Q 981 3178 1339 3381 
Q 1697 3584 2106 3584 
Q 2466 3584 2717 3439 
Q 2969 3294 3144 2988 
z
" transform="scale(0.015625)"/>
       <path id="DejaVuSans-BoldOblique-20" transform="scale(0.015625)"/>
       <path id="DejaVuSans-BoldOblique-6c" d="M 1141 4863 
L 2266 4863 
L 1319 0 
L 197 0 
L 1141 4863 
z
" transform="scale(0.015625)"/>
       <path id="DejaVuSans-BoldOblique-6e" d="M 4128 2131 
L 3713 0 
L 2591 0 
L 2944 1825 
Q 2981 2003 3001 2126 
Q 3022 2250 3022 2322 
Q 3022 2522 2911 2631 
Q 2800 2741 2597 2741 
Q 2250 2741 2001 2470 
Q 1753 2200 1656 1722 
L 1319 0 
L 197 0 
L 878 3500 
L 2003 3500 
L 1900 2988 
Q 2209 3291 2521 3437 
Q 2834 3584 3175 3584 
Q 3659 3584 3921 3331 
Q 4184 3078 4184 2619 
Q 4184 2519 4170 2397 
Q 4156 2275 4128 2131 
z
" transform="scale(0.015625)"/>
       <path id="DejaVuSans-BoldOblique-67" d="M 2675 594 
Q 2406 288 2128 144 
Q 1850 0 1522 0 
Q 928 0 583 383 
Q 238 766 238 1428 
Q 238 1781 358 2136 
Q 478 2491 703 2803 
Q 978 3181 1334 3379 
Q 1691 3578 2100 3578 
Q 2469 3578 2720 3434 
Q 2972 3291 3144 2981 
L 3238 3500 
L 4366 3500 
L 3775 459 
Q 3594 -481 3000 -931 
Q 2406 -1381 1350 -1381 
Q 1025 -1381 723 -1331 
Q 422 -1281 128 -1178 
L 294 -306 
Q 559 -475 825 -558 
Q 1091 -641 1369 -641 
Q 1925 -641 2223 -403 
Q 2522 -166 2625 353 
L 2675 594 
z
M 2363 2772 
Q 1950 2772 1676 2400 
Q 1403 2028 1403 1466 
Q 1403 1147 1550 980 
Q 1697 813 1978 813 
Q 2388 813 2663 1183 
Q 2938 1553 2938 2106 
Q 2938 2431 2791 2601 
Q 2644 2772 2363 2772 
z
" transform="scale(0.015625)"/>
       <path id="DejaVuSans-BoldOblique-68" d="M 4128 2131 
L 3713 0 
L 2591 0 
L 2944 1825 
Q 2981 2003 3001 2126 
Q 3022 2250 3022 2322 
Q 3022 2522 2911 2631 
Q 2800 2741 2597 2741 
Q 2250 2741 2001 2470 
Q 1753 2200 1656 1722 
L 1319 0 
L 197 0 
L 1141 4863 
L 2266 4863 
L 1900 2988 
Q 2209 3291 2521 3437 
Q 2834 3584 3175 3584 
Q 3659 3584 3921 3331 
Q 4184 3078 4184 2619 
Q 4184 2519 4170 2397 
Q 4156 2275 4128 2131 
z
" transform="scale(0.015625)"/>
       <path id="DejaVuSans-BoldOblique-28" d="M 1888 -844 
L 978 -844 
Q 734 -325 614 173 
Q 494 672 494 1166 
Q 494 2088 891 3008 
Q 1288 3928 2088 4856 
L 2994 4856 
Q 2266 3888 1908 2939 
Q 1550 1991 1550 1038 
Q 1550 569 1634 101 
Q 1719 -366 1888 -844 
z
" transform="scale(0.015625)"/>
       <path id="DejaVuSans-BoldOblique-61" d="M 2106 1575 
Q 1688 1575 1473 1445 
Q 1259 1316 1259 1063 
Q 1259 872 1386 762 
Q 1513 653 1734 653 
Q 2078 653 2309 861 
Q 2541 1069 2619 1447 
L 2644 1575 
L 2106 1575 
z
M 3853 1997 
L 3463 0 
L 2344 0 
L 2438 519 
Q 2163 206 1856 57 
Q 1550 -91 1191 -91 
Q 694 -91 401 167 
Q 109 425 109 863 
Q 109 1531 626 1886 
Q 1144 2241 2119 2241 
L 2778 2241 
L 2791 2328 
Q 2800 2372 2801 2390 
Q 2803 2409 2803 2425 
Q 2803 2631 2608 2736 
Q 2413 2841 2028 2841 
Q 1681 2841 1356 2769 
Q 1031 2697 728 2553 
L 897 3406 
Q 1247 3494 1614 3539 
Q 1981 3584 2375 3584 
Q 3153 3584 3531 3317 
Q 3909 3050 3909 2503 
Q 3909 2397 3895 2270 
Q 3881 2144 3853 1997 
z
" transform="scale(0.015625)"/>
       <path id="DejaVuSans-BoldOblique-29" d="M 934 4856 
L 1850 4856 
Q 2091 4344 2209 3845 
Q 2328 3347 2328 2847 
Q 2328 1916 1933 995 
Q 1538 75 744 -844 
L -172 -844 
Q 556 125 915 1075 
Q 1275 2025 1275 2981 
Q 1275 3450 1190 3914 
Q 1106 4378 934 4856 
z
" transform="scale(0.015625)"/>
      </defs>
      <use xlink:href="#DejaVuSans-BoldOblique-50"/>
      <use xlink:href="#DejaVuSans-BoldOblique-65" x="70.666016"/>
      <use xlink:href="#DejaVuSans-BoldOblique-70" x="138.488281"/>
      <use xlink:href="#DejaVuSans-BoldOblique-74" x="210.070312"/>
      <use xlink:href="#DejaVuSans-BoldOblique-69" x="257.873047"/>
      <use xlink:href="#DejaVuSans-BoldOblique-64" x="292.150391"/>
      <use xlink:href="#DejaVuSans-BoldOblique-65" x="363.732422"/>
      <use xlink:href="#DejaVuSans-BoldOblique-20" x="431.554688"/>
      <use xlink:href="#DejaVuSans-BoldOblique-6c" x="466.369141"/>
      <use xlink:href="#DejaVuSans-BoldOblique-65" x="500.646484"/>
      <use xlink:href="#DejaVuSans-BoldOblique-6e" x="568.46875"/>
      <use xlink:href="#DejaVuSans-BoldOblique-67" x="639.660156"/>
      <use xlink:href="#DejaVuSans-BoldOblique-74" x="711.242188"/>
      <use xlink:href="#DejaVuSans-BoldOblique-68" x="759.044922"/>
      <use xlink:href="#DejaVuSans-BoldOblique-20" x="830.236328"/>
      <use xlink:href="#DejaVuSans-BoldOblique-28" x="865.050781"/>
      <use xlink:href="#DejaVuSans-BoldOblique-61" x="910.753906"/>
      <use xlink:href="#DejaVuSans-BoldOblique-61" x="978.234375"/>
      <use xlink:href="#DejaVuSans-BoldOblique-29" x="1045.714844"/>
     </g>
    </g>
   </g>
   <g id="matplotlib.axis_2">
    <g id="ytick_1">
     <g id="line2d_6">
      <defs>
       <path id="mf64c919c4b" d="M 0 0 
L -3.5 0 
" style="stroke: #000000; stroke-width: 0.8"/>
      </defs>
      <g>
       <use xlink:href="#mf64c919c4b" x="53.75" y="243.16" style="stroke: #000000; stroke-width: 0.8"/>
      </g>
     </g>
     <g id="text_7">
      <!-- 0 -->
      <g transform="translate(40.3875 246.959219) scale(0.1 -0.1)">
       <use xlink:href="#DejaVuSans-30"/>
      </g>
     </g>
    </g>
    <g id="ytick_2">
     <g id="line2d_7">
      <g>
       <use xlink:href="#mf64c919c4b" x="53.75" y="208.310356" style="stroke: #000000; stroke-width: 0.8"/>
      </g>
     </g>
     <g id="text_8">
      <!-- 20 -->
      <g transform="translate(34.025 212.109575) scale(0.1 -0.1)">
       <use xlink:href="#DejaVuSans-32"/>
       <use xlink:href="#DejaVuSans-30" x="63.623047"/>
      </g>
     </g>
    </g>
    <g id="ytick_3">
     <g id="line2d_8">
      <g>
       <use xlink:href="#mf64c919c4b" x="53.75" y="173.460712" style="stroke: #000000; stroke-width: 0.8"/>
      </g>
     </g>
     <g id="text_9">
      <!-- 40 -->
      <g transform="translate(34.025 177.259931) scale(0.1 -0.1)">
       <use xlink:href="#DejaVuSans-34"/>
       <use xlink:href="#DejaVuSans-30" x="63.623047"/>
      </g>
     </g>
    </g>
    <g id="ytick_4">
     <g id="line2d_9">
      <g>
       <use xlink:href="#mf64c919c4b" x="53.75" y="138.611069" style="stroke: #000000; stroke-width: 0.8"/>
      </g>
     </g>
     <g id="text_10">
      <!-- 60 -->
      <g transform="translate(34.025 142.410287) scale(0.1 -0.1)">
       <use xlink:href="#DejaVuSans-36"/>
       <use xlink:href="#DejaVuSans-30" x="63.623047"/>
      </g>
     </g>
    </g>
    <g id="ytick_5">
     <g id="line2d_10">
      <g>
       <use xlink:href="#mf64c919c4b" x="53.75" y="103.761425" style="stroke: #000000; stroke-width: 0.8"/>
      </g>
     </g>
     <g id="text_11">
      <!-- 80 -->
      <g transform="translate(34.025 107.560644) scale(0.1 -0.1)">
       <use xlink:href="#DejaVuSans-38"/>
       <use xlink:href="#DejaVuSans-30" x="63.623047"/>
      </g>
     </g>
    </g>
    <g id="ytick_6">
     <g id="line2d_11">
      <g>
       <use xlink:href="#mf64c919c4b" x="53.75" y="68.911781" style="stroke: #000000; stroke-width: 0.8"/>
      </g>
     </g>
     <g id="text_12">
      <!-- 100 -->
      <g transform="translate(27.6625 72.711) scale(0.1 -0.1)">
       <use xlink:href="#DejaVuSans-31"/>
       <use xlink:href="#DejaVuSans-30" x="63.623047"/>
       <use xlink:href="#DejaVuSans-30" x="127.246094"/>
      </g>
     </g>
    </g>
    <g id="ytick_7">
     <g id="line2d_12">
      <g>
       <use xlink:href="#mf64c919c4b" x="53.75" y="34.062137" style="stroke: #000000; stroke-width: 0.8"/>
      </g>
     </g>
     <g id="text_13">
      <!-- 120 -->
      <g transform="translate(27.6625 37.861356) scale(0.1 -0.1)">
       <use xlink:href="#DejaVuSans-31"/>
       <use xlink:href="#DejaVuSans-32" x="63.623047"/>
       <use xlink:href="#DejaVuSans-30" x="127.246094"/>
      </g>
     </g>
    </g>
    <g id="text_14">
     <!-- Count -->
     <g transform="translate(21.166875 146.915938) rotate(-90) scale(0.12 -0.12)">
      <defs>
       <path id="DejaVuSans-BoldOblique-43" d="M 3878 219 
Q 3447 66 3050 -12 
Q 2653 -91 2297 -91 
Q 1356 -91 793 425 
Q 231 941 231 1791 
Q 231 2350 409 2845 
Q 588 3341 934 3750 
Q 1344 4231 1920 4490 
Q 2497 4750 3163 4750 
Q 3525 4750 3890 4664 
Q 4256 4578 4634 4403 
L 4441 3438 
Q 4141 3666 3837 3772 
Q 3534 3878 3188 3878 
Q 2466 3878 1978 3322 
Q 1491 2766 1491 1931 
Q 1491 1394 1791 1087 
Q 2091 781 2619 781 
Q 2934 781 3289 895 
Q 3644 1009 4084 1253 
L 3878 219 
z
" transform="scale(0.015625)"/>
       <path id="DejaVuSans-BoldOblique-6f" d="M 2400 2784 
Q 1966 2784 1684 2390 
Q 1403 1997 1403 1388 
Q 1403 1056 1554 882 
Q 1706 709 1997 709 
Q 2431 709 2712 1104 
Q 2994 1500 2994 2113 
Q 2994 2441 2842 2612 
Q 2691 2784 2400 2784 
z
M 2491 3584 
Q 3272 3584 3719 3187 
Q 4166 2791 4166 2106 
Q 4166 1709 4025 1336 
Q 3884 963 3616 653 
Q 3297 284 2862 96 
Q 2428 -91 1894 -91 
Q 1122 -91 676 306 
Q 231 703 231 1388 
Q 231 1781 375 2157 
Q 519 2534 788 2847 
Q 1100 3209 1533 3396 
Q 1966 3584 2491 3584 
z
" transform="scale(0.015625)"/>
       <path id="DejaVuSans-BoldOblique-75" d="M 434 1363 
L 844 3500 
L 1966 3500 
L 1613 1678 
Q 1575 1500 1556 1375 
Q 1538 1250 1538 1178 
Q 1538 981 1647 872 
Q 1756 763 1959 763 
Q 2306 763 2556 1031 
Q 2806 1300 2900 1778 
L 3238 3500 
L 4359 3500 
L 3681 0 
L 2553 0 
L 2656 513 
Q 2369 209 2053 59 
Q 1738 -91 1388 -91 
Q 909 -91 646 162 
Q 384 416 384 878 
Q 384 988 396 1109 
Q 409 1231 434 1363 
z
" transform="scale(0.015625)"/>
      </defs>
      <use xlink:href="#DejaVuSans-BoldOblique-43"/>
      <use xlink:href="#DejaVuSans-BoldOblique-6f" x="73.388672"/>
      <use xlink:href="#DejaVuSans-BoldOblique-75" x="142.089844"/>
      <use xlink:href="#DejaVuSans-BoldOblique-6e" x="213.28125"/>
      <use xlink:href="#DejaVuSans-BoldOblique-74" x="284.472656"/>
     </g>
    </g>
   </g>
   <g id="line2d_13">
    <path d="M 67.144892 243.16 
L 67.144892 10.8 
" clip-path="url(#p8d9c4747aa)" style="fill: none; stroke-dasharray: 1.5,2.475; stroke-dashoffset: 0; stroke: #2025c1; stroke-width: 1.5"/>
   </g>
   <g id="line2d_14">
    <path d="M 232.513929 243.16 
L 232.513929 10.8 
" clip-path="url(#p8d9c4747aa)" style="fill: none; stroke-dasharray: 1.5,2.475; stroke-dashoffset: 0; stroke: #c22626; stroke-width: 1.5"/>
   </g>
   <g id="patch_104">
    <path d="M 53.75 243.16 
L 53.75 10.8 
" style="fill: none; stroke: #000000; stroke-width: 0.8; stroke-linejoin: miter; stroke-linecap: square"/>
   </g>
   <g id="patch_105">
    <path d="M 421.2 243.16 
L 421.2 10.8 
" style="fill: none; stroke: #000000; stroke-width: 0.8; stroke-linejoin: miter; stroke-linecap: square"/>
   </g>
   <g id="patch_106">
    <path d="M 53.75 243.16 
L 421.2 243.16 
" style="fill: none; stroke: #000000; stroke-width: 0.8; stroke-linejoin: miter; stroke-linecap: square"/>
   </g>
   <g id="patch_107">
    <path d="M 53.75 10.8 
L 421.2 10.8 
" style="fill: none; stroke: #000000; stroke-width: 0.8; stroke-linejoin: miter; stroke-linecap: square"/>
   </g>
   <g id="text_15">
    <!-- 10 aa -->
    <g transform="translate(65.065204 50.577375) rotate(-90) scale(0.1 -0.1)">
     <defs>
      <path id="DejaVuSans-20" transform="scale(0.015625)"/>
      <path id="DejaVuSans-61" d="M 2194 1759 
Q 1497 1759 1228 1600 
Q 959 1441 959 1056 
Q 959 750 1161 570 
Q 1363 391 1709 391 
Q 2188 391 2477 730 
Q 2766 1069 2766 1631 
L 2766 1759 
L 2194 1759 
z
M 3341 1997 
L 3341 0 
L 2766 0 
L 2766 531 
Q 2569 213 2275 61 
Q 1981 -91 1556 -91 
Q 1019 -91 701 211 
Q 384 513 384 1019 
Q 384 1609 779 1909 
Q 1175 2209 1959 2209 
L 2766 2209 
L 2766 2266 
Q 2766 2663 2505 2880 
Q 2244 3097 1772 3097 
Q 1472 3097 1187 3025 
Q 903 2953 641 2809 
L 641 3341 
Q 956 3463 1253 3523 
Q 1550 3584 1831 3584 
Q 2591 3584 2966 3190 
Q 3341 2797 3341 1997 
z
" transform="scale(0.015625)"/>
     </defs>
     <use xlink:href="#DejaVuSans-31"/>
     <use xlink:href="#DejaVuSans-30" x="63.623047"/>
     <use xlink:href="#DejaVuSans-20" x="127.246094"/>
     <use xlink:href="#DejaVuSans-61" x="159.033203"/>
     <use xlink:href="#DejaVuSans-61" x="220.3125"/>
    </g>
   </g>
   <g id="text_16">
    <!-- 60 aa -->
    <g transform="translate(230.434241 50.577375) rotate(-90) scale(0.1 -0.1)">
     <use xlink:href="#DejaVuSans-36"/>
     <use xlink:href="#DejaVuSans-30" x="63.623047"/>
     <use xlink:href="#DejaVuSans-20" x="127.246094"/>
     <use xlink:href="#DejaVuSans-61" x="159.033203"/>
     <use xlink:href="#DejaVuSans-61" x="220.3125"/>
    </g>
   </g>
  </g>
  <g id="text_17">
   <g id="patch_108">
    <path d="M 280.8 91.479688 
L 395.067188 91.479688 
Q 398.067188 91.479688 398.067188 88.479688 
L 398.067188 45.208125 
Q 398.067188 42.208125 395.067188 42.208125 
L 280.8 42.208125 
Q 277.8 42.208125 277.8 45.208125 
L 277.8 88.479688 
Q 277.8 91.479688 280.8 91.479688 
L 280.8 91.479688 
z
" style="fill: none; stroke: #000000; stroke-width: 0.8; stroke-linejoin: miter"/>
   </g>
   <!-- &lt; 10 aa: 0 ( 0.0%) -->
   <g transform="translate(280.8 52.806563) scale(0.1 -0.1)">
    <defs>
     <path id="DejaVuSans-3c" d="M 4684 3150 
L 1459 2003 
L 4684 863 
L 4684 294 
L 678 1747 
L 678 2266 
L 4684 3719 
L 4684 3150 
z
" transform="scale(0.015625)"/>
     <path id="DejaVuSans-3a" d="M 750 794 
L 1409 794 
L 1409 0 
L 750 0 
L 750 794 
z
M 750 3309 
L 1409 3309 
L 1409 2516 
L 750 2516 
L 750 3309 
z
" transform="scale(0.015625)"/>
     <path id="DejaVuSans-28" d="M 1984 4856 
Q 1566 4138 1362 3434 
Q 1159 2731 1159 2009 
Q 1159 1288 1364 580 
Q 1569 -128 1984 -844 
L 1484 -844 
Q 1016 -109 783 600 
Q 550 1309 550 2009 
Q 550 2706 781 3412 
Q 1013 4119 1484 4856 
L 1984 4856 
z
" transform="scale(0.015625)"/>
     <path id="DejaVuSans-2e" d="M 684 794 
L 1344 794 
L 1344 0 
L 684 0 
L 684 794 
z
" transform="scale(0.015625)"/>
     <path id="DejaVuSans-25" d="M 4653 2053 
Q 4381 2053 4226 1822 
Q 4072 1591 4072 1178 
Q 4072 772 4226 539 
Q 4381 306 4653 306 
Q 4919 306 5073 539 
Q 5228 772 5228 1178 
Q 5228 1588 5073 1820 
Q 4919 2053 4653 2053 
z
M 4653 2450 
Q 5147 2450 5437 2106 
Q 5728 1763 5728 1178 
Q 5728 594 5436 251 
Q 5144 -91 4653 -91 
Q 4153 -91 3862 251 
Q 3572 594 3572 1178 
Q 3572 1766 3864 2108 
Q 4156 2450 4653 2450 
z
M 1428 4353 
Q 1159 4353 1004 4120 
Q 850 3888 850 3481 
Q 850 3069 1003 2837 
Q 1156 2606 1428 2606 
Q 1700 2606 1854 2837 
Q 2009 3069 2009 3481 
Q 2009 3884 1853 4118 
Q 1697 4353 1428 4353 
z
M 4250 4750 
L 4750 4750 
L 1831 -91 
L 1331 -91 
L 4250 4750 
z
M 1428 4750 
Q 1922 4750 2215 4408 
Q 2509 4066 2509 3481 
Q 2509 2891 2217 2550 
Q 1925 2209 1428 2209 
Q 931 2209 642 2551 
Q 353 2894 353 3481 
Q 353 4063 643 4406 
Q 934 4750 1428 4750 
z
" transform="scale(0.015625)"/>
     <path id="DejaVuSans-29" d="M 513 4856 
L 1013 4856 
Q 1481 4119 1714 3412 
Q 1947 2706 1947 2009 
Q 1947 1309 1714 600 
Q 1481 -109 1013 -844 
L 513 -844 
Q 928 -128 1133 580 
Q 1338 1288 1338 2009 
Q 1338 2731 1133 3434 
Q 928 4138 513 4856 
z
" transform="scale(0.015625)"/>
    </defs>
    <use xlink:href="#DejaVuSans-3c"/>
    <use xlink:href="#DejaVuSans-20" x="83.789062"/>
    <use xlink:href="#DejaVuSans-31" x="115.576172"/>
    <use xlink:href="#DejaVuSans-30" x="179.199219"/>
    <use xlink:href="#DejaVuSans-20" x="242.822266"/>
    <use xlink:href="#DejaVuSans-61" x="274.609375"/>
    <use xlink:href="#DejaVuSans-61" x="335.888672"/>
    <use xlink:href="#DejaVuSans-3a" x="397.167969"/>
    <use xlink:href="#DejaVuSans-20" x="430.859375"/>
    <use xlink:href="#DejaVuSans-30" x="462.646484"/>
    <use xlink:href="#DejaVuSans-20" x="526.269531"/>
    <use xlink:href="#DejaVuSans-28" x="558.056641"/>
    <use xlink:href="#DejaVuSans-20" x="597.070312"/>
    <use xlink:href="#DejaVuSans-30" x="628.857422"/>
    <use xlink:href="#DejaVuSans-2e" x="692.480469"/>
    <use xlink:href="#DejaVuSans-30" x="724.267578"/>
    <use xlink:href="#DejaVuSans-25" x="787.890625"/>
    <use xlink:href="#DejaVuSans-29" x="882.910156"/>
   </g>
   <!-- 10–15 aa: 306 (25.6%) -->
   <g transform="translate(280.8 64.004375) scale(0.1 -0.1)">
    <defs>
     <path id="DejaVuSans-2013" d="M 313 1978 
L 2888 1978 
L 2888 1528 
L 313 1528 
L 313 1978 
z
" transform="scale(0.015625)"/>
     <path id="DejaVuSans-35" d="M 691 4666 
L 3169 4666 
L 3169 4134 
L 1269 4134 
L 1269 2991 
Q 1406 3038 1543 3061 
Q 1681 3084 1819 3084 
Q 2600 3084 3056 2656 
Q 3513 2228 3513 1497 
Q 3513 744 3044 326 
Q 2575 -91 1722 -91 
Q 1428 -91 1123 -41 
Q 819 9 494 109 
L 494 744 
Q 775 591 1075 516 
Q 1375 441 1709 441 
Q 2250 441 2565 725 
Q 2881 1009 2881 1497 
Q 2881 1984 2565 2268 
Q 2250 2553 1709 2553 
Q 1456 2553 1204 2497 
Q 953 2441 691 2322 
L 691 4666 
z
" transform="scale(0.015625)"/>
     <path id="DejaVuSans-33" d="M 2597 2516 
Q 3050 2419 3304 2112 
Q 3559 1806 3559 1356 
Q 3559 666 3084 287 
Q 2609 -91 1734 -91 
Q 1441 -91 1130 -33 
Q 819 25 488 141 
L 488 750 
Q 750 597 1062 519 
Q 1375 441 1716 441 
Q 2309 441 2620 675 
Q 2931 909 2931 1356 
Q 2931 1769 2642 2001 
Q 2353 2234 1838 2234 
L 1294 2234 
L 1294 2753 
L 1863 2753 
Q 2328 2753 2575 2939 
Q 2822 3125 2822 3475 
Q 2822 3834 2567 4026 
Q 2313 4219 1838 4219 
Q 1578 4219 1281 4162 
Q 984 4106 628 3988 
L 628 4550 
Q 988 4650 1302 4700 
Q 1616 4750 1894 4750 
Q 2613 4750 3031 4423 
Q 3450 4097 3450 3541 
Q 3450 3153 3228 2886 
Q 3006 2619 2597 2516 
z
" transform="scale(0.015625)"/>
    </defs>
    <use xlink:href="#DejaVuSans-31"/>
    <use xlink:href="#DejaVuSans-30" x="63.623047"/>
    <use xlink:href="#DejaVuSans-2013" x="127.246094"/>
    <use xlink:href="#DejaVuSans-31" x="177.246094"/>
    <use xlink:href="#DejaVuSans-35" x="240.869141"/>
    <use xlink:href="#DejaVuSans-20" x="304.492188"/>
    <use xlink:href="#DejaVuSans-61" x="336.279297"/>
    <use xlink:href="#DejaVuSans-61" x="397.558594"/>
    <use xlink:href="#DejaVuSans-3a" x="458.837891"/>
    <use xlink:href="#DejaVuSans-20" x="492.529297"/>
    <use xlink:href="#DejaVuSans-33" x="524.316406"/>
    <use xlink:href="#DejaVuSans-30" x="587.939453"/>
    <use xlink:href="#DejaVuSans-36" x="651.5625"/>
    <use xlink:href="#DejaVuSans-20" x="715.185547"/>
    <use xlink:href="#DejaVuSans-28" x="746.972656"/>
    <use xlink:href="#DejaVuSans-32" x="785.986328"/>
    <use xlink:href="#DejaVuSans-35" x="849.609375"/>
    <use xlink:href="#DejaVuSans-2e" x="913.232422"/>
    <use xlink:href="#DejaVuSans-36" x="945.019531"/>
    <use xlink:href="#DejaVuSans-25" x="1008.642578"/>
    <use xlink:href="#DejaVuSans-29" x="1103.662109"/>
   </g>
   <!-- 16–60 aa: 882 (73.7%) -->
   <g transform="translate(280.8 75.202188) scale(0.1 -0.1)">
    <defs>
     <path id="DejaVuSans-37" d="M 525 4666 
L 3525 4666 
L 3525 4397 
L 1831 0 
L 1172 0 
L 2766 4134 
L 525 4134 
L 525 4666 
z
" transform="scale(0.015625)"/>
    </defs>
    <use xlink:href="#DejaVuSans-31"/>
    <use xlink:href="#DejaVuSans-36" x="63.623047"/>
    <use xlink:href="#DejaVuSans-2013" x="127.246094"/>
    <use xlink:href="#DejaVuSans-36" x="177.246094"/>
    <use xlink:href="#DejaVuSans-30" x="240.869141"/>
    <use xlink:href="#DejaVuSans-20" x="304.492188"/>
    <use xlink:href="#DejaVuSans-61" x="336.279297"/>
    <use xlink:href="#DejaVuSans-61" x="397.558594"/>
    <use xlink:href="#DejaVuSans-3a" x="458.837891"/>
    <use xlink:href="#DejaVuSans-20" x="492.529297"/>
    <use xlink:href="#DejaVuSans-38" x="524.316406"/>
    <use xlink:href="#DejaVuSans-38" x="587.939453"/>
    <use xlink:href="#DejaVuSans-32" x="651.5625"/>
    <use xlink:href="#DejaVuSans-20" x="715.185547"/>
    <use xlink:href="#DejaVuSans-28" x="746.972656"/>
    <use xlink:href="#DejaVuSans-37" x="785.986328"/>
    <use xlink:href="#DejaVuSans-33" x="849.609375"/>
    <use xlink:href="#DejaVuSans-2e" x="913.232422"/>
    <use xlink:href="#DejaVuSans-37" x="945.019531"/>
    <use xlink:href="#DejaVuSans-25" x="1008.642578"/>
    <use xlink:href="#DejaVuSans-29" x="1103.662109"/>
   </g>
   <!-- &gt; 60 aa: 8 ( 0.7%) -->
   <g transform="translate(280.8 86.4) scale(0.1 -0.1)">
    <defs>
     <path id="DejaVuSans-3e" d="M 678 3150 
L 678 3719 
L 4684 2266 
L 4684 1747 
L 678 294 
L 678 863 
L 3897 2003 
L 678 3150 
z
" transform="scale(0.015625)"/>
    </defs>
    <use xlink:href="#DejaVuSans-3e"/>
    <use xlink:href="#DejaVuSans-20" x="83.789062"/>
    <use xlink:href="#DejaVuSans-36" x="115.576172"/>
    <use xlink:href="#DejaVuSans-30" x="179.199219"/>
    <use xlink:href="#DejaVuSans-20" x="242.822266"/>
    <use xlink:href="#DejaVuSans-61" x="274.609375"/>
    <use xlink:href="#DejaVuSans-61" x="335.888672"/>
    <use xlink:href="#DejaVuSans-3a" x="397.167969"/>
    <use xlink:href="#DejaVuSans-20" x="430.859375"/>
    <use xlink:href="#DejaVuSans-38" x="462.646484"/>
    <use xlink:href="#DejaVuSans-20" x="526.269531"/>
    <use xlink:href="#DejaVuSans-28" x="558.056641"/>
    <use xlink:href="#DejaVuSans-20" x="597.070312"/>
    <use xlink:href="#DejaVuSans-30" x="628.857422"/>
    <use xlink:href="#DejaVuSans-2e" x="692.480469"/>
    <use xlink:href="#DejaVuSans-37" x="724.267578"/>
    <use xlink:href="#DejaVuSans-25" x="787.890625"/>
    <use xlink:href="#DejaVuSans-29" x="882.910156"/>
   </g>
  </g>
 </g>
 <defs>
  <clipPath id="p8d9c4747aa">
   <rect x="53.75" y="10.8" width="367.45" height="232.36"/>
  </clipPath>
 </defs>
</svg>
